<svg width="318" height="34" viewBox="0 0 318 34" fill="none" xmlns="http://www.w3.org/2000/svg">
<g clip-path="url(#clip0_105_8)">
<path d="M0 7.43056C0 7.43056 6.54433 7.41472 6.59233 7.43056H0Z" fill="#F7F8F4"/>
<path d="M6.59233 7.41472C7.74439 21.3253 17.8729 27.5042 27.6334 27.5042C27.7774 27.5042 27.9054 27.5042 28.0494 27.5042H28.1134C36.1298 27.5042 41.4421 23.3057 45.9863 18.7745C53.3627 11.3914 61.3151 7.41472 68.9795 7.24045C82.3242 6.95527 91.9086 14.1957 95.5888 27.2349H97.3009L123.302 7.92171V7.38304H101.749V0.855545H129.879V11.1538L99.509 33.699L90.3566 33.7307L89.8125 31.1323C87.3804 19.6617 80.036 13.4511 69.1395 13.7046C63.2192 13.8313 56.8349 17.1584 50.6746 23.3057C45.4103 28.5657 38.6099 33.9525 28.1614 33.9683C27.9854 33.9683 27.7934 33.9683 27.6174 33.9683C12.3846 34 1.08805 23.1631 0 7.43057" fill="#F7F8F4"/>
<path d="M150.056 25.5396L159.48 4.67381H151.544V8.12768H147.143V0.681267H165.16V4.67381L155.704 25.5396H150.056Z" fill="#F7F8F4"/>
<path d="M177.465 25.9199C175.305 25.9199 173.497 25.603 172.041 24.9692C170.585 24.3355 169.481 23.3374 168.68 21.9748C167.896 20.6123 167.416 18.8695 167.24 16.7148H172.665V17.7288C172.665 19.0121 173.049 20.0103 173.801 20.6915C174.569 21.3728 175.785 21.7055 177.449 21.7055C178.921 21.7055 180.057 21.4678 180.841 20.9925C181.625 20.5172 182.025 19.836 182.025 18.9329V18.3467C182.025 17.6971 181.785 17.1584 181.321 16.7465C180.857 16.3346 180.073 16.0019 179.001 15.7642L173.945 14.6393C171.657 14.0848 170.009 13.2451 168.984 12.1519C167.96 11.0587 167.448 9.55359 167.448 7.62069C167.448 5.13327 168.296 3.2479 169.993 1.94874C171.689 0.649581 174.137 0 177.321 0C179.465 0 181.241 0.316869 182.681 0.950606C184.121 1.58434 185.225 2.58248 185.993 3.94501C186.761 5.30755 187.257 7.06617 187.449 9.20503H182.025V8.19105C182.025 6.90774 181.657 5.9096 180.905 5.22833C180.153 4.54706 178.953 4.21435 177.305 4.21435C175.849 4.21435 174.745 4.452 173.993 4.91146C173.225 5.37092 172.857 6.06803 172.857 6.98695V7.57316C172.857 8.25443 173.081 8.7931 173.545 9.17335C173.993 9.56943 174.761 9.8863 175.817 10.1556L180.905 11.2805C183.161 11.8192 184.825 12.6272 185.865 13.7204C186.905 14.8136 187.433 16.3346 187.433 18.2833C187.433 20.7707 186.585 22.6561 184.873 23.9553C183.161 25.2544 180.681 25.904 177.449 25.904L177.465 25.9199Z" fill="#F7F8F4"/>
<path d="M197.37 25.9199C195.434 25.9199 193.946 25.3336 192.922 24.1612C191.898 22.9888 191.386 21.2777 191.386 19.0121V9.80709H189.354V6.05219H196.682V18.0298C196.682 19.3607 196.938 20.343 197.434 20.945C197.93 21.5471 198.73 21.8639 199.818 21.8639C200.906 21.8639 201.69 21.5629 202.218 20.945C202.73 20.343 202.986 19.3607 202.986 18.0298V6.05219H208.25V21.7847H210.315V25.5396H206.954C204.762 25.5396 203.674 24.4623 203.674 22.2917V21.6263H202.49C202.17 23.0839 201.594 24.1612 200.746 24.8583C199.898 25.5555 198.762 25.904 197.338 25.904L197.37 25.9199Z" fill="#F7F8F4"/>
<path d="M213.883 25.5396V9.82293H211.851V6.06803H218.443V9.96552H219.659C220.011 8.50792 220.587 7.43057 221.435 6.73346C222.267 6.03635 223.403 5.68779 224.827 5.68779C226.763 5.68779 228.235 6.274 229.244 7.44641C230.252 8.61882 230.764 10.3299 230.764 12.5955V21.7847H232.828V25.5396H225.499V13.562C225.499 12.2311 225.243 11.2488 224.731 10.6468C224.219 10.0447 223.419 9.72786 222.331 9.72786C221.243 9.72786 220.459 10.0289 219.931 10.6468C219.419 11.2488 219.163 12.2311 219.163 13.562V25.5396H213.899H213.883Z" fill="#F7F8F4"/>
<path d="M241.932 25.9199C240.476 25.9199 239.212 25.5238 238.092 24.7158C236.988 23.9077 236.14 22.7512 235.532 21.2302C234.924 19.7092 234.636 17.9031 234.636 15.8117C234.636 13.7204 234.94 11.8826 235.532 10.3774C236.14 8.87232 236.988 7.71575 238.076 6.90774C239.164 6.09972 240.46 5.70363 241.932 5.70363C243.308 5.70363 244.412 6.03635 245.244 6.68593C246.076 7.33551 246.652 8.33364 246.972 9.64865H248.156C248.028 8.50792 247.948 7.589 247.884 6.90774C247.82 6.22647 247.788 5.60857 247.788 5.05405V4.13514H245.692V0.364399H253.069V21.7847H255.101V25.5396H251.741C249.581 25.5396 248.493 24.4623 248.493 22.2917V21.5946H247.308C246.972 23.0047 246.332 24.082 245.404 24.8108C244.476 25.5396 243.324 25.904 241.916 25.904L241.932 25.9199ZM243.996 21.8639C245.292 21.8639 246.252 21.4995 246.876 20.7549C247.484 20.0103 247.804 18.8378 247.804 17.2377V14.3858C247.804 12.7856 247.5 11.6132 246.876 10.8686C246.252 10.124 245.308 9.75955 243.996 9.75955C242.684 9.75955 241.692 10.124 241.084 10.8686C240.476 11.6132 240.156 12.7856 240.156 14.3858V17.2377C240.156 18.8378 240.46 20.0103 241.084 20.7549C241.692 21.4995 242.668 21.8639 243.996 21.8639Z" fill="#F7F8F4"/>
<path d="M262.717 25.9199C260.845 25.9199 259.389 25.4287 258.333 24.4464C257.277 23.4641 256.749 22.0857 256.749 20.343C256.749 18.6002 257.325 17.1743 258.461 16.1603C259.597 15.1463 261.325 14.5284 263.597 14.2749L268.494 13.7996V17.0792L265.181 17.4119C264.093 17.507 263.325 17.7288 262.845 18.0932C262.365 18.4576 262.125 18.9487 262.125 19.6142V20.0578C262.125 20.6915 262.397 21.1827 262.925 21.5154C263.453 21.8481 264.173 22.0224 265.085 22.0224C266.221 22.0224 267.069 21.7847 267.645 21.3253C268.222 20.8658 268.51 20.1687 268.51 19.2498V13.0867C268.51 11.9143 268.27 11.0746 267.773 10.5517C267.277 10.0289 266.525 9.75955 265.485 9.75955C264.765 9.75955 264.189 9.87046 263.757 10.0923C263.309 10.3141 262.989 10.5834 262.781 10.9161C262.573 11.2488 262.461 11.5974 262.461 11.9935V12.3579H257.117C257.453 10.124 258.349 8.46039 259.773 7.35135C261.197 6.25816 263.133 5.70364 265.597 5.70364C268.27 5.70364 270.302 6.33737 271.694 7.589C273.086 8.84064 273.774 10.6626 273.774 13.0391V21.8006H275.806V25.5555H272.446C270.286 25.5555 269.198 24.4781 269.198 22.3392V21.7847H268.013C267.693 23.1948 267.101 24.2404 266.237 24.9059C265.373 25.5713 264.189 25.904 262.701 25.904L262.717 25.9199Z" fill="#F7F8F4"/>
<path d="M278.638 30.3719V26.617H284.75L285.31 24.4939H280.782L276.174 6.06803H281.662L285.134 20.7707H286.35L289.823 6.06803H295.055L289.823 27.124C289.551 28.2013 289.151 29.0093 288.606 29.548C288.062 30.0867 287.262 30.3719 286.174 30.3719H278.654H278.638Z" fill="#F7F8F4"/>
<path d="M304.991 25.9199C302.367 25.9199 300.335 25.397 298.927 24.3355C297.519 23.274 296.639 21.5946 296.287 19.2815H301.519V19.6775C301.519 20.1212 301.631 20.5172 301.871 20.8658C302.111 21.2144 302.479 21.4995 302.975 21.7055C303.471 21.9115 304.143 22.0224 304.975 22.0224C306.063 22.0224 306.879 21.8639 307.423 21.5471C307.983 21.2302 308.255 20.7707 308.255 20.1528C308.255 19.6617 308.079 19.2815 307.743 18.9963C307.391 18.7111 306.831 18.4734 306.047 18.2833L301.999 17.4436C300.063 17 298.655 16.3504 297.775 15.4632C296.895 14.576 296.463 13.3877 296.463 11.8984C296.463 9.90215 297.183 8.36533 298.639 7.30382C300.095 6.24231 302.175 5.70364 304.911 5.70364C307.647 5.70364 309.52 6.22647 310.896 7.28798C312.288 8.34949 313.152 10.0289 313.488 12.342H308.287V11.9459C308.287 11.5023 308.176 11.1062 307.951 10.7577C307.727 10.4091 307.375 10.124 306.879 9.91799C306.383 9.71203 305.727 9.60112 304.895 9.60112C303.871 9.60112 303.071 9.75955 302.543 10.0606C301.999 10.3616 301.727 10.8369 301.727 11.4706C301.727 11.9618 301.887 12.342 302.223 12.6272C302.559 12.9124 303.103 13.15 303.871 13.3402L307.919 14.1799C309.888 14.6235 311.312 15.2731 312.208 16.1286C313.104 17 313.552 18.1724 313.552 19.6934C313.552 21.6897 312.816 23.2265 311.344 24.3038C309.872 25.3812 307.743 25.9357 304.959 25.9357L304.991 25.9199Z" fill="#F7F8F4"/>
<path d="M315.136 7.20876C314.736 7.20876 314.368 7.12954 314.032 6.98695C313.696 6.84436 313.376 6.6384 313.12 6.36906C312.864 6.11556 312.656 5.81454 312.512 5.46598C312.368 5.11743 312.288 4.75303 312.288 4.37279C312.288 3.99254 312.368 3.6123 312.512 3.27959C312.656 2.93103 312.864 2.63001 313.12 2.37651C313.376 2.12302 313.68 1.91705 314.032 1.75862C314.384 1.60019 314.752 1.53681 315.136 1.53681C315.52 1.53681 315.904 1.61603 316.256 1.75862C316.608 1.90121 316.912 2.10718 317.168 2.37651C317.424 2.63001 317.632 2.93103 317.776 3.27959C317.92 3.62814 318 3.99254 318 4.37279C318 4.75303 317.92 5.13327 317.776 5.46598C317.632 5.79869 317.424 6.11556 317.168 6.36906C316.912 6.62255 316.608 6.82852 316.256 6.98695C315.904 7.14539 315.536 7.20876 315.136 7.20876ZM315.136 6.46412C315.52 6.46412 315.888 6.36906 316.208 6.17894C316.528 5.98882 316.784 5.73532 316.976 5.41845C317.168 5.10158 317.264 4.75303 317.264 4.37279C317.264 3.99254 317.168 3.62814 316.976 3.32712C316.784 3.01025 316.528 2.75676 316.208 2.56663C315.888 2.37651 315.536 2.28145 315.136 2.28145C314.736 2.28145 314.4 2.37651 314.08 2.56663C313.76 2.75676 313.504 3.01025 313.312 3.32712C313.12 3.64399 313.024 3.99254 313.024 4.37279C313.024 4.75303 313.12 5.10158 313.312 5.41845C313.504 5.73532 313.76 5.98882 314.08 6.17894C314.4 6.36906 314.752 6.46412 315.136 6.46412ZM314.096 5.67195V3.05778H315.36C315.536 3.05778 315.696 3.08947 315.84 3.15284C315.984 3.21622 316.096 3.31128 316.176 3.45387C316.256 3.58061 316.304 3.73905 316.304 3.92917C316.304 4.11929 316.256 4.27773 316.176 4.40447C316.08 4.53122 315.968 4.64212 315.824 4.7055C315.68 4.76887 315.52 4.80056 315.328 4.80056H314.48V4.32526H315.2C315.312 4.32526 315.392 4.29357 315.472 4.2302C315.552 4.16682 315.584 4.07176 315.584 3.94501C315.584 3.81827 315.552 3.72321 315.472 3.65983C315.392 3.59646 315.312 3.56477 315.216 3.56477H314.8V5.6561H314.096V5.67195ZM315.632 5.67195L315.072 4.46785H315.792L316.4 5.67195H315.632Z" fill="#F7F8F4"/>
</g>
<defs>
<clipPath id="clip0_105_8">
<rect width="318" height="34" fill="white"/>
</clipPath>
</defs>
</svg>
